<svg width="108" height="40" viewBox="0 0 108 40" fill="none" xmlns="http://www.w3.org/2000/svg">
<path d="M0 0V21.5219H21.6996V0H0ZM21.4233 21.2463H0.277347V0.275665H21.4233V21.2463Z" fill="#231F20"/>
<path d="M1.44117 10.7459C1.43897 12.3017 1.82979 13.8331 2.57779 15.1997L8.72986 9.56509L10.6148 1.45651C5.54187 1.56678 1.44117 5.68973 1.44117 10.7469V10.7459ZM6.15204 9.70342C4.23986 9.64829 4.07446 8.35617 4.07446 8.35617L4.62915 8.13664C4.76631 8.46744 5.09913 9.01576 6.09657 9.07089C6.95584 9.09896 7.23319 8.68596 7.23319 8.2469C7.28866 6.92772 4.18439 7.64245 4.23986 5.69073C4.29533 4.45375 5.54288 4.26128 6.20751 4.28835C7.34413 4.31642 7.81511 5.41607 7.81511 5.41607L7.28866 5.6356C7.15049 5.60854 6.98408 4.94794 6.09657 4.92088C5.87469 4.92088 5.01643 4.97601 5.01643 5.66267C4.98819 6.81745 8.09246 6.10373 8.03699 8.19177C7.98152 8.4945 7.75964 9.75855 6.15204 9.70342Z" fill="#0074BA"/>
<path d="M15.3257 7.75071H16.8778L16.1295 5.387L15.3257 7.75071Z" fill="#0074BA"/>
<path d="M11.0576 1.42945L12.9425 9.53702L19.0946 15.1716C19.8429 13.8805 20.2312 12.3689 20.2312 10.7469C20.2312 5.68973 16.1567 1.56678 11.0576 1.42945ZM17.4598 9.53702L17.0715 8.4103H15.0776L14.7176 9.53702H14.0519L15.8259 4.34248H16.6297L18.2918 9.53702H17.4608H17.4598Z" fill="#0074BA"/>
<path d="M10.8357 14.7877C9.72734 14.7877 9.42276 15.9695 9.42276 16.8757C9.42276 17.7278 9.78281 18.8826 10.8357 18.8826C11.9169 18.8826 12.2214 17.6737 12.2214 16.8216C12.2214 16.3805 12.1387 15.8593 11.9169 15.4743C11.695 15.0624 11.3077 14.7877 10.8357 14.7877Z" fill="#0074BA"/>
<path d="M10.864 13.1658L2.82593 15.6117C5.48745 19.9271 11.1413 21.3555 15.5476 18.7994C16.9015 18.0325 18.0365 16.9355 18.8455 15.6117L10.864 13.1658ZM10.8357 19.487C9.34006 19.487 8.67442 18.1408 8.67442 16.8487C8.67442 15.5565 9.31182 14.1271 10.8357 14.1271C12.3052 14.1271 12.998 15.4743 12.998 16.7384C12.998 18.0305 12.3324 19.487 10.8357 19.487Z" fill="#0074BA"/>
<path d="M38.9103 10.4171C37.5528 8.71303 35.6124 8.2459 33.5893 7.97124C32.0926 7.77878 30.5687 7.55824 30.5687 6.15686C30.5687 4.61714 32.0654 4.45275 33.4511 4.45275H38.5503V0H33.0073C30.7079 0 28.9611 0.302731 27.3817 1.53871C25.8014 2.80377 25.2194 4.26028 25.2194 6.18393C25.2194 7.91611 25.8851 9.45482 26.9107 10.4723C27.9354 11.4887 29.4603 12.1213 32.0099 12.4781C33.4511 12.6706 34.9478 12.8911 34.9478 14.6223C34.9478 16.7935 32.8409 16.8216 31.9827 16.8216H25.8286V21.4387H32.4244C34.4475 21.4387 35.7495 20.9987 36.4424 20.697C38.4111 19.8449 39.2966 18.1949 39.5467 17.6456C39.9622 16.7384 40.1568 15.6939 40.1568 14.5952C40.1568 13.0836 39.6869 11.3795 38.9103 10.4171ZM40.1024 0V4.45275H44.1204V21.4658H49.6361V4.45275H53.5996V0H40.1024ZM83.3353 0V12.3959C83.1064 11.8685 82.866 11.3461 82.6142 10.8291L76.5458 0H71.364V21.4387H76.3239V9.12502C76.5186 9.62022 76.7959 10.2517 77.045 10.6647L83.1971 21.4387H88.4072V0H83.3353ZM101.737 17.7829L102.707 21.4658H108L102.044 0H95.6142L89.7949 21.4387H95.004L96.0287 17.7829H101.737ZM55.2617 0V21.4387H69.6172V16.8487H60.9982V12.5884H67.4004V8.46543H60.971V4.45275H69.6444V0H55.2617ZM100.519 13.5226H97.1653L98.0246 10.1425C98.4683 8.27297 98.7174 7.14625 98.8284 6.40346C98.9666 7.14625 99.133 8.30104 99.6322 10.1425L100.519 13.5226ZM103.539 34.9063H106.172V35.648C106.172 36.9412 105.729 38.0679 103.899 38.0679C101.655 38.0679 101.516 36.3638 101.516 33.8617C101.516 31.7466 101.655 29.5192 103.899 29.5192C105.702 29.5192 106.2 30.8114 106.2 32.1857L107.558 31.9652C107.558 30.0415 106.893 28.2552 103.928 28.2552C100.657 28.2552 100.103 30.9487 100.103 33.8617C100.103 37.2429 100.685 39.3319 103.928 39.3319C106.893 39.3319 107.558 37.4624 107.558 35.5929V33.7525H103.595V34.9063H103.539ZM92.1771 28.3925V36.5562L87.0769 28.3655H85.9131V39.2217H87.3553V31.3326L92.2326 39.2497H93.6183V28.3925H92.1771ZM77.6542 39.2217H79.0964V28.3655H77.6542V39.2217ZM72.1395 37.9847H67.705V28.3925H66.2638V39.2487H72.1395V37.9847ZM58.4487 35.4566C58.4487 36.9682 57.9777 38.0949 56.2037 38.0949C53.9587 38.0949 53.8205 36.4179 53.8205 33.9169C53.8205 31.8008 53.9587 29.5463 56.2037 29.5463C57.9777 29.5463 58.4487 30.8394 58.4487 32.2127L59.8626 31.9381C59.8626 30.0415 59.1698 28.2823 56.2319 28.2823C52.9612 28.2823 52.4075 30.9758 52.4075 33.9169C52.4075 37.298 52.9895 39.36 56.2319 39.36C59.1698 39.36 59.8626 37.6278 59.8626 35.6761L58.4487 35.4566ZM39.2159 28.3925L42.4583 34.9614V39.2497H43.8985V34.9614L47.1692 28.3925H45.7008L43.2339 33.4497L40.7953 28.3925H39.2159ZM32.4254 35.4566C32.4254 36.9682 31.9544 38.0949 30.1804 38.0949C27.9354 38.0949 27.7972 36.4179 27.7972 33.9169C27.7972 31.8008 27.9354 29.5463 30.1804 29.5463C31.9544 29.5463 32.4254 30.8394 32.4254 32.2127L33.8384 31.9381C33.8384 30.0415 33.1455 28.2823 30.2076 28.2823C26.938 28.2823 26.3833 30.9758 26.3833 33.9169C26.3833 37.298 26.9652 39.36 30.2087 39.36C33.1455 39.36 33.8394 37.6278 33.8394 35.6761L32.4254 35.4566ZM20.5358 37.9847H15.3822V34.3569H19.6483V33.0929H15.3822V29.6295H20.5358V28.3925H13.94V39.2487H20.5358V37.9847ZM3.32615 29.6566C4.90552 29.6566 6.06937 30.234 6.06937 31.7186C6.06937 33.148 4.93275 33.6973 3.38061 33.6973H1.44221V29.6295H3.32716L3.32615 29.6566ZM7.28969 39.2217L5.15362 34.6867C6.56758 34.2747 7.48131 33.3124 7.48131 31.7186C7.48131 29.2446 5.81925 28.3655 3.40784 28.3655H0V39.2217H1.4412V34.9343H3.38061C3.57526 34.9343 3.65796 34.9343 3.79714 34.9063L5.84749 39.2217H7.28969Z" fill="#0074BA"/>
</svg>
